<?xml version="1.0" encoding="UTF-8"?>
<svg width="411" height="343" xmlns="http://www.w3.org/2000/svg">
 <path d="m411 343h-411v-343h411zm-349.34-173.47a149.94 149.94 0 0 0 299.87 0 149.94 149.94 0 0 0-299.87 0m57.342 42.467 1.25 0.75c2.81 1.68 4.99 1.24 11.75-4.75l-3.75 7.25c-4.59 8.87-10.27 8.05-9.25-3.25zm37-7 5.25-1.26c2.89-0.69 6.49-1.82 10.75-3.74l-0.69 1.75c-1.65 4.19-9.93 17.63-11.1 18.02-2.05 0.68-5.15-6.68-4.21-14.77zm54-8 1.81 1.56c1.42 1.23 2.37 1.34 7.19-0.56l0.41 1.75c0.32 1.42 1.37 0.85 10.59-7.75l4 1-2.38 3.75c-3.49 5.5-13.83 16.54-15.95 17.03-3.44 0.8-5.67-3.26-5.67-16.78zm26-6 11-2-1.46 5.25c-3.59 12.98-2.05 13.06 15.46-6.25l0.28 1.18c0.15 0.64 0.94 1.36 1.75 1.58 0.81 0.23 3.38 1.28 9.97 4.24v2.67c0 4.5 1.33 4.29 5.92-0.93 1.42-1.62 3.37-3.8 6.08-6.74l2 4-1 2-2.25 2.98c-13.94 18.48-19.26 19.25-21.55-4.48l-6.89 8.8c-5.88 7.49-7.53 8.97-11.15 9.99-8.59 2.39-12.72-4.45-8.16-22.29zm51 7 1-1 2.56 0.25c1.74 0.17 3.34-0.63 7.44-5.25l0.02 3.25c0.09 11.7 6.54 10.59 18.8-3.24 5.79-6.52 9.61-10.05 10.67-9.84 2.43 0.48-4.94 11.39-14.19 21.02-13.14 13.65-20.76 14.03-26.3-5.19zm-103 11-1-7 8 1v3zm106-32 1.52-4.5c2.7-8 7.72-10.93 19.35-11.32 15.01-0.5 16.89 3.3 7.94 16.13-6.32 9.08-10.24 9.13-7.38 0.09 4.24-13.42-3.35-11.04-12.43 8.6z" fill="rgba(0,0,0,0)"/>
 <path d="m61.658 169.53a149.94 149.94 0 0 1 299.87 0 149.94 149.94 0 0 1-299.87 0m70.342 38.467 14.25-23.09c7.84-12.7 14.59-23.27 15.75-23.91l1 2-0.68 2.25c-5.67 18.82-6.66 23.62-6.32 39.75-0.94 8.09 2.16 15.45 4.21 14.77 1.17-0.39 9.45-13.83 11.1-18.02l0.69-1.75 13-21 1 2-1.6 8.25c-0.87 4.54-1.55 9.26-1.4 12.75l1 7 1.25 2.25c3.05 5.5 7.1 3.3 15.65-8.5 8.28-11.44 9.1-12.18 9.1-5.75 0 13.52 2.23 17.58 5.67 16.78 2.12-0.49 12.46-11.53 15.95-17.03l2.38-3.75 2-2c-4.56 17.84-0.43 24.68 8.16 22.29 3.62-1.02 5.27-2.5 11.15-9.99l6.89-8.8c2.29 23.73 7.61 22.96 21.55 4.48l2.25-2.98 1 2c5.54 19.22 13.16 18.84 26.3 5.19 9.25-9.63 16.62-20.54 14.19-21.02-1.06-0.21-4.88 3.32-10.67 9.84-12.26 13.83-18.71 14.94-18.8 3.24l-0.02-3.25 1-6c9.08-19.64 16.67-22.02 12.43-8.6-2.86 9.04 1.06 8.99 7.38-0.09 8.95-12.83 7.07-16.63-7.94-16.13-11.63 0.39-16.65 3.32-19.35 11.32l-1.52 4.5-1.75 5.26c-0.96 2.9-2.09 5.82-3.25 7.74-2.71 2.94-4.66 5.12-6.08 6.74-4.59 5.22-5.92 5.43-5.92 0.93v-2.67l2.07-6.75c1.13-3.71 4.36-10.97 7.17-16.12 5.84-10.71 5.63-12.13-1.79-12.13-5.76 0-7.64 2.01-11.58 12.35-1.71 4.48-4.18 9.84-7.87 15.65-17.51 19.31-19.05 19.23-15.46 6.25l1.46-5.25 5.75-13.25c5.75-13.25 5.75-13.25 11.38-15.75 7.39-3.28 9.48-6.67 5.38-8.7-2.88-1.43-2.88-1.43-0.56-6.45 4.62-9.96-9.15-9.64-14.99 0.34-1.75 2.99-4.4 5.87-6.36 6.92-4.25 2.28-5.11 4.53-3 7.88 2.24 3.55-2.39 15.77-14.6 32.01-9.22 8.6-10.27 9.17-10.59 7.75l-0.41-1.75 1.51-6.25c0.83-3.44 3.79-10.52 6.57-15.75 6.67-12.51 6.87-15.03 1.21-15.75-6.7-0.84-8.64 1.11-13.42 13.52-3.91 10.18-4.63 11.28-23.87 32.23v-3l2.49-9.25c1.7-6.36 5.47-15.16 12.05-28.15 10.04-19.84 10.85-22.88 6.21-23.42-8.2-0.94-25.5 15.93-42.75 46.82l-1-2-0.01-1.25c-0.01-0.69 4.59-11.37 10.21-23.75 14.51-31.93 14.32-30.54 4.04-29.77-12.14 0.9-26.56 15.52-48.24 53.77l-1-2 9.25-22.41c5.09-12.33 11.23-25.94 13.65-30.25 5.76-10.26 4.08-11.33-17.9-11.33-30.46-0.01-45.88 8.34-37.58 20.35 3.19 4.62 4.1 4.45 9.12-1.71 4.53-5.56 18.44-12.37 26.28-12.87 4.31-0.28 4.31-0.28-1.84 13.16-10.44 22.8-17.03 50.53-14.98 73.06-1.02 11.3 4.66 12.12 9.25 3.25zm102.48-69c-5.49 0-10.45 9.73-7.1 13.95 0.89 1.13 2.77 2.05 4.17 2.05s3.68-1.13 5.06-2.52c5.07-5.06 3.74-13.48-2.13-13.48m57.61 2.09c-5.68-5.68-16.18 4.42-11.76 11.31 1.18 1.84 2.54 2.6 4.63 2.6 2.15 0 3.64-0.88 5.47-3.25 3.67-4.75 4.19-8.13 1.66-10.66" fill="rgba(63,7,84,0.988235)"/>
 <path d="m119 212c-2.05-22.53 4.54-50.26 14.98-73.06 6.15-13.44 6.15-13.44 1.84-13.16-7.84 0.5-21.75 7.31-26.28 12.87-5.02 6.16-5.93 6.33-9.12 1.71-8.3-12.01 7.12-20.36 37.58-20.35 21.98 0 23.66 1.07 17.9 11.33-2.42 4.31-8.56 17.92-13.65 30.25l-9.25 22.41-2.6 6c-1.55 3.58-2.15 6-1.47 6 0.62 0 2.01-2.25 5.07-10 21.68-38.25 36.1-52.87 48.24-53.77 10.28-0.77 10.47-2.16-4.04 29.77-5.62 12.38-10.22 23.06-10.21 23.75l0.01 1.25-2.61 6.55c-1.44 3.61-2.34 6.83-2 7.17 0.86 0.87 1.1 0.47 5.61-11.72 17.25-30.89 34.55-47.76 42.75-46.82 4.64 0.54 3.83 3.58-6.21 23.42-6.58 12.99-10.35 21.79-12.05 28.15l-2.49 9.25-8-1c-0.15-3.49 0.53-8.21 1.4-12.75l1.6-8.25 1.6-2.95c0.88-1.62 1.4-3.53 1.16-4.25-0.27-0.76-1.14 0.05-3.76 5.2l-13 21c-4.26 1.92-7.86 3.05-10.75 3.74l-5.25 1.26c-0.34-16.13 0.65-20.93 6.32-39.75l0.68-2.25 2.63-4.5c1.59-2.72 2.15-4.5 1.42-4.5-0.66 0-2.07 1.58-5.05 7-1.16 0.64-7.91 11.21-15.75 23.91l-14.25 23.09c-6.76 5.99-8.94 6.43-11.75 4.75z" fill="rgba(252,252,252,0.988235)"/>
 <path d="m230 192c12.21-16.24 16.84-28.46 14.6-32.01-2.11-3.35-1.25-5.6 3-7.88 1.96-1.05 4.61-3.93 6.36-6.92 5.84-9.98 19.61-10.3 14.99-0.34-2.32 5.02-2.32 5.02 0.56 6.45 4.1 2.03 2.01 5.42-5.38 8.7-5.63 2.5-5.63 2.5-11.38 15.75l-5.75 13.25-11 2-2 2z" fill="rgba(252,252,252,0.988235)"/>
 <path d="m184 209 7-3c19.24-20.95 19.96-22.05 23.87-32.23 4.78-12.41 6.72-14.36 13.42-13.52 5.66 0.72 5.46 3.24-1.21 15.75-2.78 5.23-5.74 12.31-6.57 15.75l-1.51 6.25c-4.82 1.9-5.77 1.79-7.19 0.56l-1.81-1.56c0-6.43-0.82-5.69-9.1 5.75-8.55 11.8-12.6 14-15.65 8.5z" fill="rgba(252,252,252,0.988235)"/>
 <path d="m261 188c3.69-5.81 6.16-11.17 7.87-15.65 3.94-10.34 5.82-12.35 11.58-12.35 7.42 0 7.63 1.42 1.79 12.13-2.81 5.15-6.04 12.41-7.17 16.12l-2.07 6.75c-6.59-2.96-9.16-4.01-9.97-4.24-0.81-0.22-1.6-0.94-1.75-1.58z" fill="rgba(252,252,252,0.988235)"/>
 <path d="m288 197-1-3-2-4c1.16-1.92 2.29-4.84 3.25-7.74l1.75-5.26 9 9-1 6c-4.1 4.62-5.7 5.42-7.44 5.25z" fill="rgba(252,252,252,0.988235)"/>
 <path d="m292.09 141.09c2.53 2.53 2.01 5.91-1.66 10.66-1.83 2.37-3.32 3.25-5.47 3.25-2.09 0-3.45-0.76-4.63-2.6-4.42-6.89 6.08-16.99 11.76-11.31" fill="rgba(252,252,252,0.988235)"/>
 <path d="m234.48 139c5.87 0 7.2 8.42 2.13 13.48-1.38 1.39-3.66 2.52-5.06 2.52s-3.28-0.92-4.17-2.05c-3.35-4.22 1.61-13.95 7.1-13.95" fill="rgba(252,252,252,0.988235)"/>
 <path d="m168 187 1 2c-4.51 12.19-4.75 12.59-5.61 11.72-0.34-0.34 0.56-3.56 2-7.17z" fill="rgba(99,56,117,0.988235)"/>
 <path d="m133 184 1 2c-3.06 7.75-4.45 10-5.07 10-0.68 0-0.08-2.42 1.47-6z" fill="rgba(99,56,117,0.988235)"/>
 <path d="m163 163-1-2c2.98-5.42 4.39-7 5.05-7 0.73 0 0.17 1.78-1.42 4.5z" fill="rgba(99,56,117,0.988235)"/>
 <path d="m186 181-1-2c2.62-5.15 3.49-5.96 3.76-5.2 0.24 0.72-0.28 2.63-1.16 4.25z" fill="rgba(99,56,117,0.988235)"/>
 <path d="m286 196 1-2 1 3-1 1z" fill="rgba(99,56,117,0.988235)"/>
</svg>
